<?xml version="1.0" ?><svg id="Capa_1" style="enable-background:new 0 0 512 512;" version="1.1" viewBox="0 0 512 512" xml:space="preserve" xmlns="http://www.w3.org/2000/svg" xmlns:xlink="http://www.w3.org/1999/xlink"><g><g><g><path d="M236.001,131.999c-5.523,0-10,4.477-10,10v320.003c0,5.522,4.477,10,10,10c5.523,0,10-4.478,10-10V141.999     C246.001,136.477,241.524,131.999,236.001,131.999z"/><path d="M136.001,351.999h0.236c5.523,0,10-4.478,10-10c0-5.523-4.477-10-10-10h-0.236c-5.523,0-10,4.477-10,10     C126.001,347.522,130.478,351.999,136.001,351.999z"/><path d="M285.999,170.966c0-5.522-4.477-10-10-10s-10,4.478-10,10v31.035l0.003,260.001c0,5.522,4.477,10,10,10     c5.522,0,10-4.478,10-10l-0.003-260.001V170.966z"/><path d="M275.999,152.235c5.523,0,10-4.478,10-10v-0.236c0-5.523-4.477-10-10-10s-10,4.477-10,10v0.236     C265.999,147.758,270.477,152.235,275.999,152.235z"/><path d="M36.237,492h-0.236c-5.522,0-10,4.478-10,10c0,5.522,4.477,10,10,10h0.236c5.523,0,10-4.478,10-10     C46.237,496.478,41.761,492,36.237,492z"/><path d="M475.999,492h-0.236c-5.522,0-10,4.478-10,10c0,5.522,4.478,10,10,10h0.236c5.523,0,10-4.478,10-10     C485.999,496.478,481.522,492,475.999,492z"/><path d="M447.032,492h-41.033v-21.008c22.795-4.645,40.002-24.849,40.002-48.997c0-27.571-22.43-50.002-50-50.002     s-50,22.431-50,50.002c0,24.146,17.203,44.35,39.998,48.996V492h-59.997V102.001c0-5.522-4.478-10-10-10h-10.001V61.998     c0-5.522-4.477-10-10-10h-1.266c-3.626-14.034-14.699-25.107-28.734-28.732V10c0-5.522-4.478-10-10-10c-5.523,0-10,4.478-10,10     v13.267c-14.035,3.626-25.107,14.697-28.732,28.732H216c-5.522,0-10,4.478-10,10v30.003h-9.999c-5.523,0-10,4.478-10,10V292     H76.002c-5.522,0-10,4.478-10,10v190h-1.035c-5.522,0-10,4.478-10,10c0,5.522,4.478,10,10,10h11.035h119.999h120.001h131.03     c5.523,0,10-4.478,10-10C457.032,496.478,452.556,492,447.032,492z M186.001,331.999h-21.032c-5.523,0-10,4.477-10,10     c0,5.522,4.477,10,10,10h21.032v19.998h-50c-5.523,0-10,4.478-10,10c0,5.522,4.477,10,10,10h50v20.002h-50     c-5.523,0-10,4.477-10,10c0,5.522,4.477,10,10,10h50v19.999h-50c-5.523,0-10,4.477-10,10c0,5.522,4.477,10,10,10h50V492H86.002     V312h99.999V331.999z M256.001,42.001c7.383,0,13.828,4.031,17.293,9.997h-34.586C242.173,46.032,248.618,42.001,256.001,42.001z      M226,71.998h60.001v20.003H226V71.998z M306.002,492H206.001V302V112.001H216h80.001h10.001V492z M395.999,431.998     c-5.524,0-10,4.477-10,10v8.279c-11.639-4.129-19.998-15.245-19.998-28.282c0-16.543,13.457-30.002,30-30.002     c16.542,0,30,13.459,30,30.002c0,13.039-8.361,24.155-20.002,28.283v-8.28C405.999,436.475,401.521,431.998,395.999,431.998z"/></g></g></g><g/><g/><g/><g/><g/><g/><g/><g/><g/><g/><g/><g/><g/><g/><g/></svg>